<svg viewBox="0 0 200 200" xmlns="http://www.w3.org/2000/svg">
    <g class="leaves">
        <path d="M80 140c-20 20-40 40-60 0 20-20 40-20 60 0z" fill="#006400"/>
        <path d="M120 140c20 20 40 40 60 0-20-20-40-20-60 0z" fill="#006400"/>
        <path d="M90 150c-10 10-20 20-30 0 10-10 20-10 30 0z" fill="#228b22"/>
    </g>
    <g class="petals">
        <path d="M100 40c-30 0-60 30-70 60 0-30 30-60 70-60s70 30 70 60c0-30-30-60-70-60z" fill="#ff0000"/>
        <path d="M100 60c-20 0-40 20-50 40 0-20 20-40 50-40s50 20 50 40c0-20-20-40-50-40z" fill="#ff4040"/>
        <path d="M100 50c-24 0-48 24-56 48 0-24 24-48 56-48s56 24 56 48c0-24-24-48-56-48z" fill="#ff6666"/>
    </g>
</svg>
